#N canvas 1281 39 1024 746 10;
#X declare -lib mrpeach;
#X obj 40 90 convert.ascii2pd CR;
#X floatatom 62 355 5 0 0 0 - - -;
#X floatatom 61 224 5 0 0 0 - - -;
#X floatatom 62 256 5 0 0 0 - - -;
#X floatatom 62 321 5 0 0 0 - - -;
#X floatatom 62 289 5 0 0 0 - - -;
#X obj 40 116 route float SC;
#X obj 40 142 list-extend;
#X obj 40 168 unpack s f f f f f;
#X symbolatom 40 380 10 0 0 0 - - -;
#X obj 41 19 import mrpeach;
#X obj 639 62 udpreceive 8000;
#X msg 328 84 disconnect;
#X msg 321 62 connect 127.0.0.1 9997;
#X obj 321 130 tgl 15 0 empty empty connected 20 7 0 8 -24198 -241291
-1 0 1;
#X obj 321 107 udpsend;
#X obj 40 64 comport 5 115200;
#X connect 0 0 6 0;
#X connect 6 0 7 0;
#X connect 6 2 7 1;
#X connect 7 0 8 0;
#X connect 8 0 9 0;
#X connect 8 1 2 0;
#X connect 8 2 3 0;
#X connect 8 3 5 0;
#X connect 8 4 4 0;
#X connect 8 5 1 0;
#X connect 12 0 15 0;
#X connect 13 0 15 0;
#X connect 15 0 14 0;
#X connect 16 0 0 0;
