#N canvas 463 22 774 673 10;
#X declare -lib mrpeach;
#X floatatom 59 323 5 0 0 0 - - -;
#X floatatom 58 224 5 0 0 0 - - -;
#X floatatom 59 249 5 0 0 0 - - -;
#X floatatom 59 296 5 0 0 0 - - -;
#X floatatom 59 273 5 0 0 0 - - -;
#X obj 40 116 route float SC;
#X obj 40 142 list-extend;
#X symbolatom 40 450 10 0 0 0 - - -;
#X obj 41 19 import mrpeach;
#X obj 639 62 udpreceive 8000;
#X msg 328 84 disconnect;
#X msg 321 62 connect 127.0.0.1 9997;
#X obj 321 130 tgl 15 0 empty empty connected 20 7 0 8 -24198 -241291
-1 0 1;
#X obj 321 107 udpsend;
#N canvas 0 22 266 422 peak_detector 0;
#X obj 90 152 moses;
#X floatatom 90 130 5 0 0 0 - - -;
#X floatatom 139 130 5 0 0 0 - - -;
#X obj 138 150 float;
#X obj 90 173 moses;
#X floatatom 138 171 5 0 0 0 - - -;
#X obj 137 191 float;
#X floatatom 90 194 5 0 0 0 - - -;
#X obj 146 215 bng 15 250 50 0 empty empty empty 17 7 0 10 -262144
-1 -1;
#X obj 90 51 inlet;
#X obj 146 239 outlet;
#X obj 141 51 inlet;
#X obj 51 368 expr if ($f1 > $f2 \, 1 \, 0);
#X obj 59 394 change;
#X floatatom 141 77 5 0 0 0 - - -;
#X obj 90 239 moses;
#X obj 100 101 moses;
#X connect 0 0 3 0;
#X connect 0 1 3 0;
#X connect 0 1 4 0;
#X connect 0 1 6 1;
#X connect 1 0 0 0;
#X connect 1 0 3 1;
#X connect 2 0 0 1;
#X connect 3 0 2 0;
#X connect 4 0 6 0;
#X connect 4 0 7 0;
#X connect 4 1 6 0;
#X connect 5 0 4 1;
#X connect 6 0 5 0;
#X connect 7 0 15 0;
#X connect 8 0 10 0;
#X connect 9 0 16 0;
#X connect 11 0 14 0;
#X connect 12 0 13 0;
#X connect 14 0 16 1;
#X connect 15 1 8 0;
#X connect 16 1 1 0;
#X restore 317 303 pd peak_detector;
#X floatatom 317 281 5 0 0 0 - - -;
#X obj 317 326 bng 15 250 50 0 empty empty empty 17 7 0 10 -262144
-1 -1;
#X obj 464 494 makenote;
#X obj 40 90 convert.ascii2pd CR;
#X obj 322 492 ctlout;
#X floatatom 322 444 5 0 0 0 - - -;
#X obj 316 370 noteout 1;
#X msg 317 349 80 10;
#X obj 40 168 unpack s f f f f f f f;
#X floatatom 59 375 5 0 0 0 - - -;
#X floatatom 59 349 5 0 0 0 - - -;
#X text 105 224 Board ID;
#X text 105 274 ECG;
#X text 106 297 BPM;
#X text 106 325 RR;
#X obj 460 442 ctlout;
#X floatatom 460 394 5 0 0 0 - - -;
#X msg 559 409 26;
#X msg 589 409 2;
#X obj 460 357 * 50;
#X msg 355 464 1;
#X msg 385 464 1;
#X obj 250 371 noteout 3;
#X msg 251 350 40 10;
#X msg 410 282 2.9;
#X obj 40 64 comporte 5 115200;
#X connect 1 0 15 0;
#X connect 2 0 34 0;
#X connect 4 0 20 0;
#X connect 5 0 6 0;
#X connect 5 2 6 1;
#X connect 6 0 23 0;
#X connect 10 0 13 0;
#X connect 11 0 13 0;
#X connect 13 0 12 0;
#X connect 14 0 16 0;
#X connect 15 0 14 0;
#X connect 16 0 22 0;
#X connect 16 0 38 0;
#X connect 18 0 5 0;
#X connect 20 0 19 0;
#X connect 22 0 21 0;
#X connect 23 0 7 0;
#X connect 23 1 1 0;
#X connect 23 2 2 0;
#X connect 23 3 4 0;
#X connect 23 4 3 0;
#X connect 23 5 0 0;
#X connect 23 6 25 0;
#X connect 23 7 24 0;
#X connect 31 0 30 0;
#X connect 32 0 30 1;
#X connect 33 0 30 2;
#X connect 34 0 31 0;
#X connect 35 0 19 1;
#X connect 36 0 19 2;
#X connect 38 0 37 0;
#X connect 39 0 14 1;
#X connect 40 0 18 0;
